HIERARCHY
ROOT Hips
{
	OFFSET -21.947001 39.810204 44.525997
	CHANNELS 6 Xposition Yposition Zposition Zrotation Xrotation Yrotation
	JOINT Chest
	{
		OFFSET -0.201599 0.334099 6.453201
		CHANNELS 6 Xposition Yposition Zposition Zrotation Xrotation Yrotation
		JOINT Chest2
		{
			OFFSET 0.000000 0.000000 3.568001
			CHANNELS 6 Xposition Yposition Zposition Zrotation Xrotation Yrotation
			JOINT Neck
			{
				OFFSET 0.000000 0.000000 8.296402
				CHANNELS 6 Xposition Yposition Zposition Zrotation Xrotation Yrotation
				JOINT Head
				{
					OFFSET 0.000000 0.000000 2.173901
					CHANNELS 6 Xposition Yposition Zposition Zrotation Xrotation Yrotation
					End Site
					{
						OFFSET 0.000000 0.000000 7.891998
					}
				}
			}
			JOINT LeftCollar
			{
				OFFSET 1.927601 0.221401 6.049000
				CHANNELS 6 Xposition Yposition Zposition Zrotation Xrotation Yrotation
				JOINT LeftShoulder
				{
					OFFSET 4.959700 0.000000 0.000000
					CHANNELS 6 Xposition Yposition Zposition Zrotation Xrotation Yrotation
					JOINT LeftElbow
					{
						OFFSET 0.000000 0.000000 -8.654202
						CHANNELS 6 Xposition Yposition Zposition Zrotation Xrotation Yrotation
						JOINT LeftWrist
						{
							OFFSET 0.000000 0.000000 -13.864101
							CHANNELS 6 Xposition Yposition Zposition Zrotation Xrotation Yrotation
							End Site
							{
								OFFSET 0.000000 0.000000 -2.173901
							}
						}
					}
				}
			}
			JOINT RightCollar
			{
				OFFSET -3.155701 -0.764999 6.687801
				CHANNELS 6 Xposition Yposition Zposition Zrotation Xrotation Yrotation
				JOINT RightShoulder
				{
					OFFSET -3.592899 0.000000 0.000000
					CHANNELS 6 Xposition Yposition Zposition Zrotation Xrotation Yrotation
					JOINT RightElbow
					{
						OFFSET 0.000000 0.000000 -10.352398
						CHANNELS 6 Xposition Yposition Zposition Zrotation Xrotation Yrotation
						JOINT RightWrist
						{
							OFFSET 0.000000 0.000000 -12.750301
							CHANNELS 6 Xposition Yposition Zposition Zrotation Xrotation Yrotation
							End Site
							{
								OFFSET 0.000000 0.000000 -2.173901
							}
						}
					}
				}
			}
		}
	}
	JOINT LeftHip
	{
		OFFSET 2.460600 -0.518101 -2.735500
		CHANNELS 6 Xposition Yposition Zposition Zrotation Xrotation Yrotation
		JOINT LeftKnee
		{
			OFFSET 0.000000 -0.000004 -17.005899
			CHANNELS 6 Xposition Yposition Zposition Zrotation Xrotation Yrotation
			JOINT LeftAnkle
			{
				OFFSET 0.000000 0.000000 -19.194401
				CHANNELS 6 Xposition Yposition Zposition Zrotation Xrotation Yrotation
				End Site
				{
					OFFSET 0.000000 -8.134600 0.000000
				}
			}
		}
	}
	JOINT RightHip
	{
		OFFSET -3.115499 -0.679600 -2.320301
		CHANNELS 6 Xposition Yposition Zposition Zrotation Xrotation Yrotation
		JOINT RightKnee
		{
			OFFSET 0.000000 -0.000004 -17.680401
			CHANNELS 6 Xposition Yposition Zposition Zrotation Xrotation Yrotation
			JOINT RightAnkle
			{
				OFFSET 0.000000 0.000000 -16.993797
				CHANNELS 6 Xposition Yposition Zposition Zrotation Xrotation Yrotation
				End Site
				{
					OFFSET 0.000000 -8.842300 0.000000
				}
			}
		}
	}
}
MOTION
Frames: 4
Frame Time: 0.041667
-45.170998 8.739809 40.315388 2466.428520 16.754990 -1.101551 -0.201603 0.334092 6.453208 10.343513 -5.494432 10.919750 0.000008 0.000009 3.567991 -1.526997 1.432215 0.134979 -0.000005 0.000005 8.296395 182.486167 -171.783957 186.724080 -0.000008 0.000002 2.173899 0.655478 -0.278960 -0.187119 1.927598 0.221404 6.048995 -16.886557 -0.144514 3.204119 4.959704 0.000005 -0.000000 212.154664 176.193745 73.896363 -0.000005 -0.000003 -8.654197 30.515065 -52.632792 33.290240 -0.000001 0.000007 -13.864100 4118.045852 -131.929079 180.683912 -3.155706 -0.765003 6.687794 44.981310 11.316247 8.398220 -3.592897 0.000002 0.000001 -204.461030 171.030956 293.453012 0.000007 -0.000005 -10.352393 -296.184596 -56.562668 -299.872434 -0.000001 -0.000009 -12.750300 -50.643107 159.973713 -146.703584 2.460593 -0.518101 -2.735504 55.067704 -31.373726 28.411719 -0.000001 -0.000001 -17.005892 -265.053578 143.325427 -132.166688 -0.000006 -0.000002 -19.194405 585.066081 174.708166 202.415470 -3.115503 -0.679601 -2.320296 9.459768 16.327125 -7.328640 -0.000000 -0.000001 -17.680405 -864.517261 161.821388 -191.260514 0.000007 0.000006 -16.993795 1066.463223 55.626864 -378.685659
-45.187698 8.726810 40.318897 2466.706973 16.693641 -1.074967 -0.201602 0.334099 6.453200 10.318522 -5.529139 10.778716 0.000001 0.000012 3.568003 -1.484150 1.389157 0.139492 -0.000006 -0.000002 8.296396 182.773075 -171.856193 186.855930 -0.000009 0.000001 2.173902 1.084121 -0.341333 -0.331194 1.927595 0.221400 6.049001 -17.209128 0.118142 3.586074 4.959702 0.000003 0.000006 213.347270 176.928278 72.960422 0.000002 -0.000004 -8.654198 31.701452 -52.577136 33.402832 -0.000009 0.000000 -13.864100 4120.600889 -131.544908 187.295958 -3.155710 -0.764998 6.687804 45.395203 11.957805 8.420593 -3.592898 -0.000002 0.000004 -205.609130 174.531988 293.801461 -0.000007 -0.000005 -10.352392 -295.275143 -56.915191 -300.118676 0.000006 -0.000005 -12.750304 -50.130460 160.463724 -143.292793 2.460599 -0.518097 -2.735505 54.701175 -31.412375 28.127224 -0.000003 -0.000002 -17.005898 -264.514703 143.213112 -132.345461 -0.000002 -0.000000 -19.194405 584.753477 174.652199 202.128466 -3.115505 -0.679597 -2.320297 9.409177 16.310902 -7.446352 0.000002 -0.000006 -17.680401 -864.329567 161.893829 -191.282289 0.000004 0.000002 -16.993799 1066.833365 55.781069 -379.465421
-45.205498 8.707598 40.324093 2466.950237 16.560991 -1.104316 -0.201604 0.334098 6.453204 10.383365 -5.396606 10.679949 -0.000002 0.000005 3.567996 -1.488835 1.320442 0.131123 0.000004 0.000004 8.296393 182.976274 -171.839473 187.027518 -0.000001 -0.000005 2.173898 1.437229 -0.394111 -0.254489 1.927600 0.221405 6.048998 -17.325104 0.143041 3.794819 4.959704 -0.000000 0.000005 214.338262 177.631869 72.242207 -0.000003 0.000002 -8.654202 32.568972 -52.740474 33.271467 -0.000004 -0.000007 -13.864100 4123.546285 -131.425380 193.616984 -3.155707 -0.764999 6.687796 45.551054 12.209029 8.459441 -3.592888 -0.000000 0.000006 -207.455685 175.205718 293.718789 0.000002 -0.000004 -10.352396 -297.533859 -56.642629 -300.331286 0.000007 -0.000002 -12.750299 -49.473393 160.932794 -139.329575 2.460593 -0.518103 -2.735498 54.348840 -31.352710 27.783826 -0.000004 -0.000004 -17.005892 -263.826548 143.034639 -132.598178 -0.000003 -0.000005 -19.194403 584.341371 174.594798 201.746658 -3.115499 -0.679601 -2.320296 9.434799 16.418554 -7.519663 0.000002 -0.000001 -17.680395 -863.706818 161.983523 -191.386600 0.000007 0.000005 -16.993803 1067.004939 55.642918 -380.544973
-45.220695 8.695501 40.327293 2467.123122 16.538898 -1.123454 -0.201604 0.334103 6.453197 10.476484 -5.349193 10.634153 0.000001 0.000002 3.567996 -1.474880 1.269329 0.127987 0.000003 -0.000009 8.296391 183.090256 -171.739205 187.163781 -0.000004 0.000000 2.173905 1.818928 -0.407661 -0.159235 1.927605 0.221391 6.048994 -17.432635 0.227059 3.941719 4.959699 0.000008 0.000010 215.141151 178.532935 71.899366 -0.000004 -0.000001 -8.654195 32.851157 -52.943986 32.470094 -0.000009 -0.000002 -13.864097 4126.567305 -131.408468 199.717218 -3.155698 -0.765009 6.687796 45.736634 12.508783 8.499571 -3.592892 0.000001 0.000010 -209.380501 175.795668 293.026044 -0.000004 -0.000005 -10.352399 -300.240253 -56.248790 -300.339100 0.000006 0.000001 -12.750302 -48.333899 161.308714 -135.852135 2.460595 -0.518099 -2.735501 54.135120 -31.355944 27.601626 0.000004 -0.000005 -17.005896 -263.372422 142.932664 -132.751106 -0.000009 0.000002 -19.194397 584.058055 174.594074 201.652169 -3.115505 -0.679593 -2.320301 9.526256 16.486089 -7.578885 0.000005 -0.000006 -17.680403 -863.109367 162.163799 -191.393812 0.000004 0.000007 -16.993793 1067.023408 55.539912 -381.316703
